Facade-Bold.ufo
<glyph name="parenright" format="2">
  <advance width="480"/>
  <unicode hex="0029"/>
  <outline>
    <contour>
      <point x="60" y="-180" type="curve"/>
      <point x="235" y="-180" type="line"/>
      <point x="337" y="-13"/>
      <point x="396" y="182"/>
      <point x="396" y="390" type="curve" smooth="yes"/>
      <point x="396" y="598"/>
      <point x="337" y="793"/>
      <point x="235" y="960" type="curve"/>
      <point x="60" y="960" type="line"/>
      <point x="171" y="799"/>
      <point x="234" y="604"/>
      <point x="234" y="390" type="curve" smooth="yes"/>
      <point x="234" y="176"/>
      <point x="171" y="-19"/>
    </contour>
  </outline>
</glyph>
<glyph name="three" format="2">
  <advance width="750"/>
  <unicode hex="0033"/>
  <outline>
    <contour>
      <point x="320" y="-20" type="curve" smooth="yes"/>
      <point x="500" y="-20"/>
      <point x="654" y="117"/>
      <point x="654" y="296" type="curve" smooth="yes"/>
      <point x="654" y="430"/>
      <point x="568" y="539"/>
      <point x="453" y="581" type="curve"/>
      <point x="624" y="900" type="line"/>
      <point x="108" y="900" type="line"/>
      <point x="108" y="744" type="line"/>
      <point x="424" y="744" type="line"/>
      <point x="391" y="790" type="line"/>
      <point x="205" y="428" type="line"/>
      <point x="243" y="448"/>
      <point x="278" y="458"/>
      <point x="318" y="458" type="curve" smooth="yes"/>
      <point x="418" y="458"/>
      <point x="484" y="388"/>
      <point x="484" y="301" type="curve" smooth="yes"/>
      <point x="484" y="211"/>
      <point x="413" y="142"/>
      <point x="322" y="142" type="curve" smooth="yes"/>
      <point x="231" y="142"/>
      <point x="160" y="211"/>
      <point x="139" y="295" type="curve"/>
      <point x="48" y="116" type="line"/>
      <point x="106" y="35"/>
      <point x="206" y="-20"/>
    </contour>
  </outline>
</glyph>
<glyph name="greater" format="2">
  <advance width="750"/>
  <unicode hex="003E"/>
  <outline>
    <contour>
      <point x="72" y="128" type="line"/>
      <point x="726" y="450" type="line"/>
      <point x="72" y="774" type="line"/>
      <point x="72" y="617" type="line"/>
      <point x="312" y="502" type="line" smooth="yes"/>
      <point x="349" y="484"/>
      <point x="392" y="467"/>
      <point x="433" y="451" type="curve"/>
      <point x="392" y="434"/>
      <point x="349" y="417"/>
      <point x="312" y="399" type="curve" smooth="yes"/>
      <point x="72" y="283" type="line"/>
    </contour>
  </outline>
</glyph>
<glyph name="J" format="2">
  <advance width="560"/>
  <unicode hex="004A"/>
  <anchor x="165" y="0" name="bottom"/>
  <anchor x="384" y="900" name="top"/>
  <outline>
    <contour>
      <point x="199" y="-20" type="curve" smooth="yes"/>
      <point x="343" y="-20"/>
      <point x="476" y="69"/>
      <point x="476" y="270" type="curve" smooth="yes"/>
      <point x="476" y="900" type="line"/>
      <point x="290" y="900" type="line"/>
      <point x="290" y="283" type="line" smooth="yes"/>
      <point x="290" y="186"/>
      <point x="242" y="148"/>
      <point x="180" y="148" type="curve" smooth="yes"/>
      <point x="128" y="148"/>
      <point x="85" y="174"/>
      <point x="59" y="214" type="curve"/>
      <point x="12" y="46" type="line"/>
      <point x="57" y="1"/>
      <point x="129" y="-20"/>
    </contour>
  </outline>
</glyph>
<glyph name="Z" format="2">
  <advance width="680"/>
  <unicode hex="005A"/>
  <anchor x="324" y="0" name="bottom"/>
  <anchor x="333" y="450" name="center"/>
  <anchor x="354" y="900" name="top"/>
  <outline>
    <contour>
      <point x="18" y="0" type="line"/>
      <point x="629" y="0" type="line"/>
      <point x="629" y="162" type="line"/>
      <point x="193" y="162" type="line"/>
      <point x="230" y="56" type="line"/>
      <point x="650" y="900" type="line"/>
      <point x="63" y="900" type="line"/>
      <point x="63" y="738" type="line"/>
      <point x="463" y="738" type="line"/>
      <point x="438" y="844" type="line"/>
    </contour>
  </outline>
</glyph>
<glyph name="a" format="2">
  <advance width="740"/>
  <unicode hex="0061"/>
  <anchor x="350" y="0" name="bottom"/>
  <anchor x="599" y="0" name="ogonek"/>
  <anchor x="360" y="600" name="top"/>
  <outline>
    <contour>
      <point x="336" y="-16" type="curve" smooth="yes"/>
      <point x="441" y="-16"/>
      <point x="523" y="38"/>
      <point x="566" y="120" type="curve"/>
      <point x="524" y="150" type="line"/>
      <point x="524" y="0" type="line"/>
      <point x="674" y="0" type="line"/>
      <point x="674" y="600" type="line"/>
      <point x="524" y="600" type="line"/>
      <point x="524" y="450" type="line"/>
      <point x="566" y="480" type="line"/>
      <point x="523" y="562"/>
      <point x="441" y="616"/>
      <point x="336" y="616" type="curve" smooth="yes"/>
      <point x="170" y="616"/>
      <point x="36" y="474"/>
      <point x="36" y="300" type="curve" smooth="yes"/>
      <point x="36" y="126"/>
      <point x="170" y="-16"/>
    </contour>
    <contour>
      <point x="357" y="137" type="curve" smooth="yes"/>
      <point x="269" y="137"/>
      <point x="198" y="210"/>
      <point x="198" y="300" type="curve" smooth="yes"/>
      <point x="198" y="390"/>
      <point x="269" y="463"/>
      <point x="357" y="463" type="curve" smooth="yes"/>
      <point x="445" y="463"/>
      <point x="516" y="390"/>
      <point x="516" y="300" type="curve" smooth="yes"/>
      <point x="516" y="210"/>
      <point x="445" y="137"/>
    </contour>
  </outline>
</glyph>
<glyph name="c" format="2">
  <advance width="600"/>
  <unicode hex="0063"/>
  <anchor x="371" y="0" name="bottom"/>
  <anchor x="371" y="600" name="top"/>
  <outline>
    <contour>
      <point x="360" y="-20" type="curve" smooth="yes"/>
      <point x="443" y="-20"/>
      <point x="518" y="8"/>
      <point x="576" y="61" type="curve"/>
      <point x="531" y="238" type="line"/>
      <point x="498" y="183"/>
      <point x="441" y="136"/>
      <point x="367" y="136" type="curve" smooth="yes"/>
      <point x="273" y="136"/>
      <point x="204" y="209"/>
      <point x="204" y="300" type="curve" smooth="yes"/>
      <point x="204" y="391"/>
      <point x="273" y="464"/>
      <point x="367" y="464" type="curve" smooth="yes"/>
      <point x="441" y="464"/>
      <point x="498" y="416"/>
      <point x="531" y="362" type="curve"/>
      <point x="576" y="539" type="line"/>
      <point x="518" y="592"/>
      <point x="443" y="620"/>
      <point x="360" y="620" type="curve" smooth="yes"/>
      <point x="181" y="620"/>
      <point x="36" y="477"/>
      <point x="36" y="300" type="curve" smooth="yes"/>
      <point x="36" y="123"/>
      <point x="181" y="-20"/>
    </contour>
  </outline>
</glyph>
<glyph name="e" format="2">
  <advance width="690"/>
  <unicode hex="0065"/>
  <anchor x="352" y="0" name="bottom"/>
  <anchor x="492" y="0" name="ogonek"/>
  <anchor x="352" y="600" name="top"/>
  <outline>
    <contour>
      <point x="377" y="-20" type="curve" smooth="yes"/>
      <point x="458" y="-20"/>
      <point x="536" y="3"/>
      <point x="596" y="48" type="curve"/>
      <point x="558" y="204" type="line"/>
      <point x="519" y="159"/>
      <point x="457" y="124"/>
      <point x="381" y="124" type="curve" smooth="yes"/>
      <point x="266" y="124"/>
      <point x="196" y="198"/>
      <point x="196" y="300" type="curve"/>
      <point x="187" y="300" type="line"/>
      <point x="187" y="410"/>
      <point x="255" y="482"/>
      <point x="348" y="482" type="curve" smooth="yes"/>
      <point x="446" y="482"/>
      <point x="509" y="410"/>
      <point x="509" y="300" type="curve"/>
      <point x="538" y="356" type="line"/>
      <point x="496" y="369"/>
      <point x="453" y="375"/>
      <point x="400" y="375" type="curve" smooth="yes"/>
      <point x="294" y="375" type="line" smooth="yes"/>
      <point x="247" y="375"/>
      <point x="205" y="367"/>
      <point x="158" y="355" type="curve"/>
      <point x="158" y="269" type="line"/>
      <point x="205" y="257"/>
      <point x="247" y="249"/>
      <point x="294" y="249" type="curve" smooth="yes"/>
      <point x="660" y="249" type="line"/>
      <point x="660" y="310" type="line" smooth="yes"/>
      <point x="660" y="487"/>
      <point x="527" y="620"/>
      <point x="350" y="620" type="curve" smooth="yes"/>
      <point x="175" y="620"/>
      <point x="36" y="487"/>
      <point x="36" y="306" type="curve" smooth="yes"/>
      <point x="36" y="116"/>
      <point x="174" y="-20"/>
    </contour>
  </outline>
</glyph>
<glyph name="v" format="2">
  <advance width="670"/>
  <unicode hex="0076"/>
  <outline>
    <contour>
      <point x="335" y="-30" type="line"/>
      <point x="664" y="600" type="line"/>
      <point x="479" y="600" type="line"/>
      <point x="385" y="407" type="line" smooth="yes"/>
      <point x="359" y="354"/>
      <point x="337" y="309"/>
      <point x="314" y="219" type="curve"/>
      <point x="364" y="219" type="line"/>
      <point x="341" y="309"/>
      <point x="319" y="354"/>
      <point x="293" y="407" type="curve" smooth="yes"/>
      <point x="199" y="600" type="line"/>
      <point x="6" y="600" type="line"/>
    </contour>
  </outline>
</glyph>
<glyph name="braceright" format="2">
  <advance width="480"/>
  <unicode hex="007D"/>
  <outline>
    <contour>
      <point x="81" y="-186" type="line"/>
      <point x="225" y="-186"/>
      <point x="357" y="-111"/>
      <point x="357" y="55" type="curve" smooth="yes"/>
      <point x="357" y="116"/>
      <point x="339" y="177"/>
      <point x="339" y="232" type="curve" smooth="yes"/>
      <point x="339" y="319"/>
      <point x="384" y="354"/>
      <point x="456" y="390" type="curve"/>
      <point x="384" y="426"/>
      <point x="339" y="461"/>
      <point x="339" y="548" type="curve" smooth="yes"/>
      <point x="339" y="603"/>
      <point x="357" y="664"/>
      <point x="357" y="725" type="curve" smooth="yes"/>
      <point x="357" y="891"/>
      <point x="225" y="966"/>
      <point x="81" y="966" type="curve"/>
      <point x="48" y="834" type="line"/>
      <point x="132" y="834"/>
      <point x="207" y="816"/>
      <point x="207" y="708" type="curve" smooth="yes"/>
      <point x="207" y="655"/>
      <point x="189" y="590"/>
      <point x="189" y="533" type="curve" smooth="yes"/>
      <point x="189" y="395"/>
      <point x="294" y="366"/>
      <point x="393" y="366" type="curve"/>
      <point x="393" y="414" type="line"/>
      <point x="294" y="414"/>
      <point x="189" y="385"/>
      <point x="189" y="247" type="curve" smooth="yes"/>
      <point x="189" y="190"/>
      <point x="207" y="125"/>
      <point x="207" y="72" type="curve" smooth="yes"/>
      <point x="207" y="-36"/>
      <point x="132" y="-54"/>
      <point x="48" y="-54" type="curve"/>
    </contour>
  </outline>
</glyph>
<glyph name="sterling" format="2">
  <advance width="750"/>
  <unicode hex="00A3"/>
  <outline>
    <contour>
      <point x="127" y="0" type="curve"/>
      <point x="678" y="0" type="line"/>
      <point x="678" y="156" type="line"/>
      <point x="280" y="156" type="line"/>
      <point x="217" y="30" type="line"/>
      <point x="316" y="64"/>
      <point x="396" y="104"/>
      <point x="396" y="228" type="curve" smooth="yes"/>
      <point x="396" y="327"/>
      <point x="343" y="480"/>
      <point x="343" y="582" type="curve" smooth="yes"/>
      <point x="343" y="691"/>
      <point x="396" y="764"/>
      <point x="481" y="764" type="curve" smooth="yes"/>
      <point x="550" y="764"/>
      <point x="606" y="716"/>
      <point x="639" y="662" type="curve"/>
      <point x="684" y="839" type="line"/>
      <point x="624" y="893"/>
      <point x="554" y="920"/>
      <point x="472" y="920" type="curve" smooth="yes"/>
      <point x="287" y="920"/>
      <point x="175" y="786"/>
      <point x="175" y="597" type="curve" smooth="yes"/>
      <point x="175" y="467"/>
      <point x="234" y="315"/>
      <point x="234" y="208" type="curve" smooth="yes"/>
      <point x="234" y="118"/>
      <point x="191" y="67"/>
    </contour>
    <contour>
      <point x="90" y="396" type="line"/>
      <point x="600" y="396" type="line"/>
      <point x="600" y="504" type="line"/>
      <point x="90" y="504" type="line"/>
    </contour>
  </outline>
</glyph>
<glyph name="copyright" format="2">
  <advance width="1260"/>
  <unicode hex="00A9"/>
  <outline>
    <contour>
      <point x="630" y="-192" type="curve" smooth="yes"/>
      <point x="938" y="-192"/>
      <point x="1188" y="55"/>
      <point x="1188" y="360" type="curve" smooth="yes"/>
      <point x="1188" y="665"/>
      <point x="938" y="912"/>
      <point x="630" y="912" type="curve" smooth="yes"/>
      <point x="322" y="912"/>
      <point x="72" y="665"/>
      <point x="72" y="360" type="curve" smooth="yes"/>
      <point x="72" y="55"/>
      <point x="322" y="-192"/>
    </contour>
    <contour>
      <point x="657" y="78" type="curve" smooth="yes"/>
      <point x="732" y="78"/>
      <point x="800" y="102"/>
      <point x="853" y="149" type="curve"/>
      <point x="811" y="308" type="line"/>
      <point x="781" y="261"/>
      <point x="729" y="220"/>
      <point x="663" y="220" type="curve" smooth="yes"/>
      <point x="577" y="220"/>
      <point x="517" y="283"/>
      <point x="517" y="360" type="curve" smooth="yes"/>
      <point x="517" y="437"/>
      <point x="578" y="500"/>
      <point x="663" y="500" type="curve" smooth="yes"/>
      <point x="729" y="500"/>
      <point x="781" y="458"/>
      <point x="811" y="411" type="curve"/>
      <point x="853" y="572" type="line"/>
      <point x="800" y="619"/>
      <point x="731" y="642"/>
      <point x="659" y="642" type="curve" smooth="yes"/>
      <point x="492" y="642"/>
      <point x="361" y="516"/>
      <point x="361" y="360" type="curve" smooth="yes"/>
      <point x="361" y="203"/>
      <point x="494" y="78"/>
    </contour>
    <contour>
      <point x="630" y="-60" type="curve" smooth="yes"/>
      <point x="398" y="-60"/>
      <point x="210" y="128"/>
      <point x="210" y="360" type="curve" smooth="yes"/>
      <point x="210" y="592"/>
      <point x="398" y="780"/>
      <point x="630" y="780" type="curve" smooth="yes"/>
      <point x="862" y="780"/>
      <point x="1050" y="592"/>
      <point x="1050" y="360" type="curve" smooth="yes"/>
      <point x="1050" y="128"/>
      <point x="862" y="-60"/>
    </contour>
  </outline>
</glyph>
<glyph name="registered" format="2">
  <advance width="600"/>
  <unicode hex="00AE"/>
  <outline>
    <contour>
      <point x="300" y="394" type="curve" smooth="yes"/>
      <point x="450" y="394"/>
      <point x="572" y="513"/>
      <point x="572" y="660" type="curve" smooth="yes"/>
      <point x="572" y="807"/>
      <point x="450" y="926"/>
      <point x="300" y="926" type="curve" smooth="yes"/>
      <point x="150" y="926"/>
      <point x="28" y="807"/>
      <point x="28" y="660" type="curve" smooth="yes"/>
      <point x="28" y="513"/>
      <point x="150" y="394"/>
    </contour>
    <contour>
      <point x="300" y="472" type="curve" smooth="yes"/>
      <point x="197" y="472"/>
      <point x="112" y="557"/>
      <point x="112" y="660" type="curve" smooth="yes"/>
      <point x="112" y="763"/>
      <point x="197" y="848"/>
      <point x="300" y="848" type="curve" smooth="yes"/>
      <point x="403" y="848"/>
      <point x="488" y="763"/>
      <point x="488" y="660" type="curve" smooth="yes"/>
      <point x="488" y="557"/>
      <point x="403" y="472"/>
    </contour>
    <contour>
      <point x="203" y="546" type="line"/>
      <point x="275" y="546" type="line"/>
      <point x="275" y="786" type="line"/>
      <point x="203" y="786" type="line"/>
    </contour>
    <contour>
      <point x="342" y="546" type="line"/>
      <point x="423" y="546" type="line"/>
      <point x="360" y="636" type="line"/>
      <point x="280" y="636" type="line"/>
    </contour>
    <contour>
      <point x="236" y="616" type="line"/>
      <point x="313" y="616" type="line" smooth="yes"/>
      <point x="372" y="616"/>
      <point x="411" y="649"/>
      <point x="411" y="700" type="curve" smooth="yes"/>
      <point x="411" y="747"/>
      <point x="374" y="786"/>
      <point x="313" y="786" type="curve" smooth="yes"/>
      <point x="236" y="786" type="line"/>
      <point x="236" y="730" type="line"/>
      <point x="299" y="730" type="line" smooth="yes"/>
      <point x="323" y="730"/>
      <point x="339" y="719"/>
      <point x="339" y="699" type="curve" smooth="yes"/>
      <point x="339" y="682"/>
      <point x="325" y="668"/>
      <point x="299" y="668" type="curve" smooth="yes"/>
      <point x="236" y="668" type="line"/>
    </contour>
  </outline>
</glyph>
<glyph name="paragraph" format="2">
  <advance width="750"/>
  <unicode hex="00B6"/>
  <outline>
    <contour>
      <point x="282" y="-180" type="line"/>
      <point x="426" y="-180" type="line"/>
      <point x="426" y="834" type="line"/>
      <point x="534" y="834" type="line"/>
      <point x="534" y="-180" type="line"/>
      <point x="678" y="-180" type="line"/>
      <point x="678" y="960" type="line"/>
      <point x="353" y="960" type="line" smooth="yes"/>
      <point x="116" y="960"/>
      <point x="30" y="795"/>
      <point x="30" y="662" type="curve" smooth="yes"/>
      <point x="30" y="546"/>
      <point x="98" y="399"/>
      <point x="282" y="369" type="curve"/>
    </contour>
  </outline>
</glyph>
<glyph name="guillemetright" format="2">
  <advance width="630"/>
  <unicode hex="00BB"/>
  <outline>
    <contour>
      <point x="291" y="60" type="line"/>
      <point x="453" y="60" type="line"/>
      <point x="615" y="300" type="line"/>
      <point x="453" y="540" type="line"/>
      <point x="291" y="540" type="line"/>
      <point x="453" y="300" type="line"/>
    </contour>
    <contour>
      <point x="21" y="60" type="line"/>
      <point x="183" y="60" type="line"/>
      <point x="345" y="300" type="line"/>
      <point x="183" y="540" type="line"/>
      <point x="21" y="540" type="line"/>
      <point x="183" y="300" type="line"/>
    </contour>
  </outline>
</glyph>
<glyph name="germandbls" format="2">
  <advance width="720"/>
  <unicode hex="00DF"/>
  <outline>
    <contour>
      <point x="364" y="-17" type="line"/>
      <point x="528" y="-17"/>
      <point x="684" y="128"/>
      <point x="684" y="321" type="curve" smooth="yes"/>
      <point x="684" y="458"/>
      <point x="607" y="568"/>
      <point x="491" y="619" type="curve"/>
      <point x="500" y="559" type="line"/>
      <point x="558" y="602"/>
      <point x="595" y="663"/>
      <point x="595" y="740" type="curve" smooth="yes"/>
      <point x="595" y="878"/>
      <point x="482" y="980"/>
      <point x="335" y="980" type="curve" smooth="yes"/>
      <point x="189" y="980"/>
      <point x="66" y="876"/>
      <point x="66" y="719" type="curve" smooth="yes"/>
      <point x="66" y="0" type="line"/>
      <point x="240" y="0" type="line"/>
      <point x="240" y="718" type="line" smooth="yes"/>
      <point x="240" y="780"/>
      <point x="281" y="824"/>
      <point x="337" y="824" type="curve" smooth="yes"/>
      <point x="392" y="824"/>
      <point x="433" y="781"/>
      <point x="433" y="721" type="curve" smooth="yes"/>
      <point x="433" y="661"/>
      <point x="389" y="600"/>
      <point x="303" y="552" type="curve"/>
      <point x="424" y="508"/>
      <point x="504" y="429"/>
      <point x="504" y="319" type="curve" smooth="yes"/>
      <point x="504" y="210"/>
      <point x="425" y="145"/>
      <point x="327" y="139" type="curve"/>
    </contour>
  </outline>
</glyph>
<glyph name="oe" format="2">
  <advance width="1140"/>
  <unicode hex="0153"/>
  <anchor x="570" y="0" name="bottom"/>
  <anchor x="570" y="600" name="top"/>
  <outline>
    <contour>
      <point x="360" y="-20" type="curve" smooth="yes"/>
      <point x="447" y="-20"/>
      <point x="526" y="14"/>
      <point x="584" y="68" type="curve"/>
      <point x="644" y="13"/>
      <point x="727" y="-20"/>
      <point x="827" y="-20" type="curve" smooth="yes"/>
      <point x="908" y="-20"/>
      <point x="986" y="3"/>
      <point x="1046" y="48" type="curve"/>
      <point x="1008" y="204" type="line"/>
      <point x="969" y="159"/>
      <point x="907" y="124"/>
      <point x="831" y="124" type="curve" smooth="yes"/>
      <point x="716" y="124"/>
      <point x="646" y="198"/>
      <point x="646" y="300" type="curve"/>
      <point x="637" y="300" type="line"/>
      <point x="637" y="410"/>
      <point x="705" y="482"/>
      <point x="798" y="482" type="curve" smooth="yes"/>
      <point x="888" y="482"/>
      <point x="948" y="422"/>
      <point x="957" y="328" type="curve"/>
      <point x="980" y="359" type="line"/>
      <point x="942" y="370"/>
      <point x="900" y="375"/>
      <point x="850" y="375" type="curve" smooth="yes"/>
      <point x="714" y="375" type="line" smooth="yes"/>
      <point x="667" y="375"/>
      <point x="625" y="367"/>
      <point x="578" y="355" type="curve"/>
      <point x="578" y="269" type="line"/>
      <point x="625" y="257"/>
      <point x="667" y="249"/>
      <point x="714" y="249" type="curve" smooth="yes"/>
      <point x="1110" y="249" type="line"/>
      <point x="1110" y="310" type="line" smooth="yes"/>
      <point x="1110" y="487"/>
      <point x="977" y="620"/>
      <point x="800" y="620" type="curve" smooth="yes"/>
      <point x="715" y="620"/>
      <point x="638" y="588"/>
      <point x="581" y="534" type="curve"/>
      <point x="523" y="587"/>
      <point x="446" y="620"/>
      <point x="360" y="620" type="curve" smooth="yes"/>
      <point x="181" y="620"/>
      <point x="36" y="477"/>
      <point x="36" y="300" type="curve" smooth="yes"/>
      <point x="36" y="123"/>
      <point x="181" y="-20"/>
    </contour>
    <contour>
      <point x="360" y="136" type="curve" smooth="yes"/>
      <point x="270" y="136"/>
      <point x="199" y="209"/>
      <point x="199" y="300" type="curve" smooth="yes"/>
      <point x="199" y="391"/>
      <point x="270" y="464"/>
      <point x="360" y="464" type="curve" smooth="yes"/>
      <point x="449" y="464"/>
      <point x="521" y="391"/>
      <point x="521" y="300" type="curve" smooth="yes"/>
      <point x="521" y="209"/>
      <point x="449" y="136"/>
    </contour>
  </outline>
</glyph>
<glyph name="Ezh" format="2">
  <advance width="660"/>
  <unicode hex="01B7"/>
  <anchor x="302" y="0" name="bottom"/>
  <anchor x="330" y="900" name="top"/>
  <outline>
    <contour>
      <point x="296" y="-20" type="curve" smooth="yes"/>
      <point x="476" y="-20"/>
      <point x="630" y="118"/>
      <point x="630" y="299" type="curve" smooth="yes"/>
      <point x="630" y="445"/>
      <point x="529" y="563"/>
      <point x="400" y="596" type="curve"/>
      <point x="408" y="541" type="line"/>
      <point x="600" y="900" type="line"/>
      <point x="72" y="900" type="line"/>
      <point x="72" y="744" type="line"/>
      <point x="394" y="744" type="line"/>
      <point x="366" y="790" type="line"/>
      <point x="182" y="428" type="line"/>
      <point x="219" y="448"/>
      <point x="254" y="458"/>
      <point x="294" y="458" type="curve" smooth="yes"/>
      <point x="394" y="458"/>
      <point x="460" y="388"/>
      <point x="460" y="301" type="curve" smooth="yes"/>
      <point x="460" y="211"/>
      <point x="389" y="142"/>
      <point x="298" y="142" type="curve" smooth="yes"/>
      <point x="203" y="142"/>
      <point x="130" y="217"/>
      <point x="112" y="306" type="curve"/>
      <point x="20" y="123" type="line"/>
      <point x="76" y="38"/>
      <point x="179" y="-20"/>
    </contour>
  </outline>
</glyph>
<glyph name="macroncomb" format="2">
  <unicode hex="0304"/>
  <anchor x="360" y="600" name="_top"/>
  <outline>
    <contour>
      <point x="207" y="720" type="line"/>
      <point x="513" y="720" type="line"/>
      <point x="513" y="840" type="line"/>
      <point x="207" y="840" type="line"/>
    </contour>
  </outline>
</glyph>
<glyph name="breveinvertedcomb" format="2">
  <unicode hex="0311"/>
  <anchor x="360" y="600" name="_top"/>
  <anchor x="360" y="849" name="top"/>
  <outline>
    <contour>
      <point x="156" y="663" type="curve"/>
      <point x="282" y="663" type="line"/>
      <point x="282" y="706"/>
      <point x="318" y="741"/>
      <point x="360" y="741" type="curve" smooth="yes"/>
      <point x="402" y="741"/>
      <point x="438" y="706"/>
      <point x="438" y="663" type="curve"/>
      <point x="564" y="663" type="line"/>
      <point x="564" y="775"/>
      <point x="474" y="861"/>
      <point x="360" y="861" type="curve" smooth="yes"/>
      <point x="245" y="861"/>
      <point x="156" y="777"/>
    </contour>
  </outline>
</glyph>
<glyph name="cedillacomb" format="2">
  <unicode hex="0327"/>
  <anchor x="426" y="0" name="_bottom"/>
  <anchor x="272" y="-180" name="bottom"/>
  <outline>
    <contour>
      <point x="152" y="-192" type="line"/>
      <point x="367" y="-192" type="line"/>
      <point x="501" y="0" type="line"/>
      <point x="351" y="0" type="line"/>
    </contour>
  </outline>
</glyph>
<glyph name="macronbelowcomb" format="2">
  <unicode hex="0331"/>
  <anchor x="360" y="0" name="_bottom"/>
  <outline>
    <contour>
      <point x="210" y="-222" type="line"/>
      <point x="510" y="-222" type="line"/>
      <point x="510" y="-138" type="line"/>
      <point x="210" y="-138" type="line"/>
    </contour>
  </outline>
</glyph>
<glyph name="dagger" format="2">
  <advance width="600"/>
  <unicode hex="2020"/>
  <outline>
    <contour>
      <point x="219" y="0" type="line"/>
      <point x="381" y="0" type="line"/>
      <point x="361" y="666" type="line"/>
      <point x="309" y="577" type="line"/>
      <point x="540" y="563" type="line"/>
      <point x="540" y="698" type="line"/>
      <point x="361" y="683" type="line"/>
      <point x="381" y="900" type="line"/>
      <point x="219" y="900" type="line"/>
      <point x="240" y="683" type="line"/>
      <point x="60" y="698" type="line"/>
      <point x="60" y="563" type="line"/>
      <point x="291" y="577" type="line"/>
      <point x="240" y="666" type="line"/>
    </contour>
  </outline>
</glyph>
<glyph name="ellipsis" format="2">
  <advance width="1440"/>
  <unicode hex="2026"/>
  <outline>
    <contour>
      <point x="1200" y="-20" type="curve" smooth="yes"/>
      <point x="1260" y="-20"/>
      <point x="1305" y="26"/>
      <point x="1305" y="85" type="curve" smooth="yes"/>
      <point x="1305" y="144"/>
      <point x="1260" y="190"/>
      <point x="1200" y="190" type="curve" smooth="yes"/>
      <point x="1141" y="190"/>
      <point x="1095" y="144"/>
      <point x="1095" y="85" type="curve" smooth="yes"/>
      <point x="1095" y="26"/>
      <point x="1141" y="-20"/>
    </contour>
    <contour>
      <point x="240" y="-20" type="curve" smooth="yes"/>
      <point x="300" y="-20"/>
      <point x="345" y="26"/>
      <point x="345" y="85" type="curve" smooth="yes"/>
      <point x="345" y="144"/>
      <point x="300" y="190"/>
      <point x="240" y="190" type="curve" smooth="yes"/>
      <point x="181" y="190"/>
      <point x="135" y="144"/>
      <point x="135" y="85" type="curve" smooth="yes"/>
      <point x="135" y="26"/>
      <point x="181" y="-20"/>
    </contour>
    <contour>
      <point x="720" y="-20" type="curve" smooth="yes"/>
      <point x="780" y="-20"/>
      <point x="825" y="26"/>
      <point x="825" y="85" type="curve" smooth="yes"/>
      <point x="825" y="144"/>
      <point x="780" y="190"/>
      <point x="720" y="190" type="curve" smooth="yes"/>
      <point x="661" y="190"/>
      <point x="615" y="144"/>
      <point x="615" y="85" type="curve" smooth="yes"/>
      <point x="615" y="26"/>
      <point x="661" y="-20"/>
    </contour>
  </outline>
</glyph>
<glyph name="minute" format="2">
  <advance width="290"/>
  <unicode hex="2032"/>
  <outline>
    <contour>
      <point x="6" y="540" type="line"/>
      <point x="96" y="540" type="line"/>
      <point x="338" y="900" type="line"/>
      <point x="128" y="900" type="line"/>
    </contour>
  </outline>
</glyph>
<glyph name="fraction" format="2">
  <advance width="120"/>
  <unicode hex="2044"/>
  <outline>
    <contour>
      <point x="-321" y="0" type="line"/>
      <point x="-179" y="0" type="line"/>
      <point x="440" y="900" type="line"/>
      <point x="298" y="900" type="line"/>
    </contour>
  </outline>
</glyph>
<glyph name="A.ring" format="2">
  <advance width="820"/>
  <anchor x="410" y="900" name="top"/>
  <outline>
    <contour>
      <point x="12" y="0" type="line"/>
      <point x="187" y="0" type="line"/>
      <point x="353" y="396" type="line" smooth="yes"/>
      <point x="374" y="445"/>
      <point x="391" y="488"/>
      <point x="406" y="548" type="curve"/>
      <point x="422" y="487"/>
      <point x="440" y="445"/>
      <point x="461" y="396" type="curve" smooth="yes"/>
      <point x="627" y="0" type="line"/>
      <point x="808" y="0" type="line"/>
      <point x="424" y="900" type="line"/>
      <point x="396" y="900" type="line"/>
    </contour>
    <contour>
      <point x="188" y="160" type="line"/>
      <point x="626" y="160" type="line"/>
      <point x="574" y="304" type="line"/>
      <point x="242" y="304" type="line"/>
    </contour>
  </outline>
</glyph>
<glyph name="G.stroke" format="2">
  <advance width="920"/>
  <anchor x="529" y="0" name="bottom"/>
  <anchor x="783" y="372" name="center"/>
  <anchor x="530" y="900" name="top"/>
  <outline>
    <contour>
      <point x="540" y="-18" type="curve" smooth="yes"/>
      <point x="653" y="-18"/>
      <point x="757" y="14"/>
      <point x="840" y="67" type="curve"/>
      <point x="840" y="540" type="line"/>
      <point x="676" y="540" type="line"/>
      <point x="676" y="180" type="line"/>
      <point x="638" y="159"/>
      <point x="592" y="148"/>
      <point x="537" y="148" type="curve" smooth="yes"/>
      <point x="368" y="148"/>
      <point x="242" y="272"/>
      <point x="242" y="448" type="curve" smooth="yes"/>
      <point x="242" y="620"/>
      <point x="368" y="748"/>
      <point x="538" y="748" type="curve" smooth="yes"/>
      <point x="660" y="748"/>
      <point x="750" y="684"/>
      <point x="801" y="601" type="curve"/>
      <point x="852" y="807" type="line"/>
      <point x="769" y="877"/>
      <point x="661" y="918"/>
      <point x="538" y="918" type="curve" smooth="yes"/>
      <point x="267" y="918"/>
      <point x="54" y="716"/>
      <point x="54" y="448" type="curve" smooth="yes"/>
      <point x="54" y="179"/>
      <point x="267" y="-18"/>
    </contour>
  </outline>
</glyph>
<glyph name="brevecomb_gravecomb" format="2">
  <anchor x="360" y="600" name="_top"/>
  <outline>
    <contour>
      <point x="360" y="663" type="curve" smooth="yes"/>
      <point x="475" y="663"/>
      <point x="564" y="747"/>
      <point x="564" y="861" type="curve"/>
      <point x="444" y="861" type="line"/>
      <point x="444" y="814"/>
      <point x="405" y="777"/>
      <point x="360" y="777" type="curve" smooth="yes"/>
      <point x="315" y="777"/>
      <point x="276" y="814"/>
      <point x="276" y="861" type="curve"/>
      <point x="156" y="861" type="line"/>
      <point x="156" y="749"/>
      <point x="246" y="663"/>
    </contour>
    <contour>
      <point x="309" y="879" type="line"/>
      <point x="435" y="879" type="line"/>
      <point x="366" y="1029" type="line"/>
      <point x="198" y="1029" type="line"/>
    </contour>
  </outline>
</glyph>
<glyph name="cent.BRACKET.150" format="2">
  <advance width="750"/>
  <outline>
    <contour>
      <point x="420" y="130" type="curve" smooth="yes"/>
      <point x="503" y="130"/>
      <point x="578" y="158"/>
      <point x="636" y="211" type="curve"/>
      <point x="591" y="388" type="line"/>
      <point x="558" y="333"/>
      <point x="501" y="286"/>
      <point x="427" y="286" type="curve" smooth="yes"/>
      <point x="333" y="286"/>
      <point x="264" y="359"/>
      <point x="264" y="450" type="curve" smooth="yes"/>
      <point x="264" y="541"/>
      <point x="333" y="614"/>
      <point x="427" y="614" type="curve" smooth="yes"/>
      <point x="501" y="614"/>
      <point x="558" y="566"/>
      <point x="591" y="512" type="curve"/>
      <point x="636" y="689" type="line"/>
      <point x="578" y="742"/>
      <point x="503" y="770"/>
      <point x="420" y="770" type="curve" smooth="yes"/>
      <point x="241" y="770"/>
      <point x="96" y="627"/>
      <point x="96" y="450" type="curve" smooth="yes"/>
      <point x="96" y="273"/>
      <point x="241" y="130"/>
    </contour>
    <contour>
      <point x="366" y="0" type="line"/>
      <point x="474" y="0" type="line"/>
      <point x="474" y="180" type="line"/>
      <point x="366" y="180" type="line"/>
    </contour>
    <contour>
      <point x="366" y="720" type="line"/>
      <point x="474" y="720" type="line"/>
      <point x="474" y="870" type="line"/>
      <point x="366" y="870" type="line"/>
    </contour>
  </outline>
</glyph>
<glyph name="circumflexcomb_tildecomb" format="2">
  <anchor x="360" y="600" name="_top"/>
  <outline>
    <contour>
      <point x="141" y="678" type="line"/>
      <point x="299" y="678" type="line"/>
      <point x="321" y="698"/>
      <point x="338" y="718"/>
      <point x="358" y="742" type="curve"/>
      <point x="378" y="718"/>
      <point x="395" y="698"/>
      <point x="417" y="678" type="curve"/>
      <point x="579" y="678" type="line"/>
      <point x="360" y="903" type="line"/>
    </contour>
    <contour>
      <point x="198" y="897" type="line"/>
      <point x="214" y="938"/>
      <point x="241" y="962"/>
      <point x="279" y="962" type="curve" smooth="yes"/>
      <point x="331" y="962"/>
      <point x="377" y="915"/>
      <point x="441" y="915" type="curve" smooth="yes"/>
      <point x="491" y="915"/>
      <point x="536" y="943"/>
      <point x="560" y="990" type="curve"/>
      <point x="522" y="1098" type="line"/>
      <point x="506" y="1058"/>
      <point x="479" y="1035"/>
      <point x="441" y="1035" type="curve" smooth="yes"/>
      <point x="389" y="1035"/>
      <point x="343" y="1082"/>
      <point x="279" y="1082" type="curve" smooth="yes"/>
      <point x="229" y="1082"/>
      <point x="184" y="1055"/>
      <point x="160" y="1007" type="curve"/>
    </contour>
  </outline>
</glyph>
<glyph name="emdash.titl.case" format="2">
  <advance width="1440"/>
  <outline>
    <contour>
      <point x="60" y="414" type="line"/>
      <point x="1380" y="414" type="line"/>
      <point x="1380" y="486" type="line"/>
      <point x="60" y="486" type="line"/>
    </contour>
  </outline>
</glyph>
<glyph name="macroncomb.narrow" format="2">
  <anchor x="360" y="600" name="_top"/>
  <outline>
    <contour>
      <point x="207" y="720" type="line"/>
      <point x="513" y="720" type="line"/>
      <point x="513" y="840" type="line"/>
      <point x="207" y="840" type="line"/>
    </contour>
  </outline>
</glyph>
<glyph name="ringcomb.case" format="2">
  <anchor x="360" y="900" name="_top"/>
  <outline>
    <contour>
      <point x="360" y="822" type="curve" smooth="yes"/>
      <point x="454" y="822"/>
      <point x="531" y="895"/>
      <point x="531" y="990" type="curve" smooth="yes"/>
      <point x="531" y="1085"/>
      <point x="454" y="1158"/>
      <point x="360" y="1158" type="curve" smooth="yes"/>
      <point x="265" y="1158"/>
      <point x="189" y="1085"/>
      <point x="189" y="990" type="curve" smooth="yes"/>
      <point x="189" y="895"/>
      <point x="265" y="822"/>
    </contour>
    <contour>
      <point x="360" y="921" type="curve" smooth="yes"/>
      <point x="322" y="921"/>
      <point x="291" y="952"/>
      <point x="291" y="990" type="curve" smooth="yes"/>
      <point x="291" y="1027"/>
      <point x="322" y="1059"/>
      <point x="360" y="1059" type="curve" smooth="yes"/>
      <point x="397" y="1059"/>
      <point x="429" y="1027"/>
      <point x="429" y="990" type="curve" smooth="yes"/>
      <point x="429" y="952"/>
      <point x="397" y="921"/>
    </contour>
  </outline>
</glyph>
<glyph name="t_t" format="2">
  <advance width="860"/>
  <outline>
    <contour>
      <point x="543" y="0" type="line"/>
      <point x="717" y="0" type="line"/>
      <point x="717" y="549" type="line"/>
      <point x="714" y="549" type="line"/>
      <point x="714" y="800" type="line"/>
      <point x="546" y="800" type="line"/>
      <point x="546" y="550" type="line"/>
      <point x="543" y="550" type="line"/>
    </contour>
    <contour>
      <point x="133" y="0" type="line"/>
      <point x="307" y="0" type="line"/>
      <point x="307" y="549" type="line"/>
      <point x="304" y="549" type="line"/>
      <point x="304" y="800" type="line"/>
      <point x="136" y="800" type="line"/>
      <point x="136" y="550" type="line"/>
      <point x="133" y="550" type="line"/>
    </contour>
    <contour>
      <point x="24" y="462" type="line"/>
      <point x="836" y="462" type="line"/>
      <point x="836" y="600" type="line"/>
      <point x="24" y="600" type="line"/>
    </contour>
  </outline>
</glyph>
<glyph name="three.numr" format="2">
  <advance width="480"/>
  <outline>
    <contour>
      <point x="208" y="402" type="curve" smooth="yes"/>
      <point x="325" y="402"/>
      <point x="414" y="478"/>
      <point x="414" y="583" type="curve" smooth="yes"/>
      <point x="414" y="659"/>
      <point x="366" y="723"/>
      <point x="285" y="749" type="curve"/>
      <point x="284" y="683" type="line"/>
      <point x="405" y="900" type="line"/>
      <point x="66" y="900" type="line"/>
      <point x="66" y="786" type="line"/>
      <point x="211" y="786" type="line"/>
      <point x="131" y="637" type="line"/>
      <point x="151" y="647"/>
      <point x="175" y="656"/>
      <point x="202" y="656" type="curve" smooth="yes"/>
      <point x="261" y="656"/>
      <point x="282" y="621"/>
      <point x="282" y="589" type="curve" smooth="yes"/>
      <point x="282" y="550"/>
      <point x="250" y="522"/>
      <point x="202" y="522" type="curve" smooth="yes"/>
      <point x="151" y="522"/>
      <point x="118" y="557"/>
      <point x="107" y="592" type="curve"/>
      <point x="42" y="474" type="line"/>
      <point x="74" y="434"/>
      <point x="135" y="402"/>
    </contour>
  </outline>
</glyph>
<glyph name="underscore.titl" format="2">
  <advance width="720"/>
  <outline>
    <contour>
      <point x="-6" y="-189" type="line"/>
      <point x="726" y="-189" type="line"/>
      <point x="726" y="-117" type="line"/>
      <point x="-6" y="-117" type="line"/>
    </contour>
  </outline>
</glyph>
<glyph name="zero.lf.ss01" format="2">
  <advance width="1060"/>
  <outline>
    <contour>
      <point x="530" y="-18" type="curve" smooth="yes"/>
      <point x="793" y="-18"/>
      <point x="1006" y="191"/>
      <point x="1006" y="450" type="curve" smooth="yes"/>
      <point x="1006" y="709"/>
      <point x="793" y="918"/>
      <point x="530" y="918" type="curve" smooth="yes"/>
      <point x="267" y="918"/>
      <point x="54" y="709"/>
      <point x="54" y="450" type="curve" smooth="yes"/>
      <point x="54" y="191"/>
      <point x="267" y="-18"/>
    </contour>
    <contour>
      <point x="530" y="156" type="curve" smooth="yes"/>
      <point x="368" y="156"/>
      <point x="242" y="287"/>
      <point x="242" y="450" type="curve" smooth="yes"/>
      <point x="242" y="613"/>
      <point x="368" y="744"/>
      <point x="530" y="744" type="curve" smooth="yes"/>
      <point x="692" y="744"/>
      <point x="818" y="613"/>
      <point x="818" y="450" type="curve" smooth="yes"/>
      <point x="818" y="287"/>
      <point x="692" y="156"/>
    </contour>
  </outline>
</glyph>
